# xmcd CD database file
#
# Track frame offsets:
#	150
#	20695
#	37705
#	58247
#
# Disc length: 1002 seconds
#
# Revision: 0
# Processed by: cddbd v1.5.1PL0 Copyright (c) Steve Scherf et al.
# Submitted via: CDex 1.51
#
DISCID=2b03e804
DTITLE=RIDER CHIPS - The people with no name
DYEAR=2003
DGENRE=Pop
TTITLE0=The people with no name
TTITLE1=All eyez on me
TTITLE2=The people with no name (Original Karaoke)
TTITLE3=All eyez on me (Original Karaoke)
EXTD=YEAR: 2003
EXTT0=
EXTT1=
EXTT2=
EXTT3=
PLAYORDER=
